<?xml version="1.0" encoding="UTF-8" standalone="no"?>
<!-- Created with Inkscape (http://www.inkscape.org/) -->

<svg
   width="100mm"
   height="100mm"
   viewBox="0 0 100 100"
   version="1.1"
   id="svg1"
   inkscape:version="1.4.2 (ebf0e940, 2025-05-08)"
   sodipodi:docname="rivian_logo.svg"
   xmlns:inkscape="http://www.inkscape.org/namespaces/inkscape"
   xmlns:sodipodi="http://sodipodi.sourceforge.net/DTD/sodipodi-0.dtd"
   xmlns="http://www.w3.org/2000/svg"
   xmlns:svg="http://www.w3.org/2000/svg">
  <sodipodi:namedview
     id="namedview1"
     pagecolor="#ffffff"
     bordercolor="#000000"
     borderopacity="0.25"
     inkscape:showpageshadow="2"
     inkscape:pageopacity="0.0"
     inkscape:pagecheckerboard="0"
     inkscape:deskcolor="#d1d1d1"
     inkscape:document-units="mm"
     inkscape:zoom="1"
     inkscape:cx="309.5"
     inkscape:cy="288.5"
     inkscape:window-width="896"
     inkscape:window-height="250"
     inkscape:window-x="0"
     inkscape:window-y="38"
     inkscape:window-maximized="0"
     inkscape:current-layer="layer1" />
  <defs
     id="defs1" />
  <g
     inkscape:label="Layer 1"
     inkscape:groupmode="layer"
     id="layer1">
    <path
       style="fill:#151515;fill-opacity:1;stroke-width:2.46721"
       id="path40"
       d="m 50.001967,1.665e-6 c -3.237701,0 -5.814668,1.213553935 -7.810838,2.867500935 C 36.455546,7.5630006 5.85082,40.107687 0.19492705,46.124344 c -0.46182,0.547925 -0.04519,1.409273 0.65009,1.409273 2.82549395,0 9.37720795,0.01011 13.32491495,0.01011 1.390394,0 1.802406,-0.250612 2.676362,-1.218438 0.87398,-0.967828 5.224613,-5.778997 5.224613,-5.778997 5.531693,-6.149693 19.023569,-19.730725 23.954465,-24.011457 1.852094,-1.60785 3.94671,-1.556089 3.976595,-1.556089 0.02965,0 2.124257,-0.05186 3.976593,1.556089 4.930897,4.285868 18.422701,17.866776 23.954443,24.011457 0,0 4.35068,4.811169 5.22461,5.778997 0.87393,0.967826 1.28614,1.218438 2.67636,1.218438 3.94278,0 10.49952,-0.01011 13.32492,-0.01011 0.69511,0.0051 1.107217,-0.861348 0.64535,-1.409273 C 94.148353,40.107687 63.548121,7.5630006 57.812779,2.8675026 55.811508,1.2135556 53.234565,1.665e-6 50.001967,1.665e-6 Z M 46.860551,22.196065 c -0.124888,0.02505 -0.250979,0.08668 -0.370151,0.20068 -5.62601,5.371398 -18.158967,18.178821 -22.360009,23.140463 -2.011085,2.196712 -1.822207,4.433335 -1.822207,4.433335 0,0 -0.183922,2.231612 1.822207,4.433336 4.205902,4.961894 16.738859,17.769193 22.360009,23.140463 0.501472,0.450718 1.09143,0.170362 1.09143,-0.469757 V 63.603289 c 0,-1.228887 -0.248403,-1.854629 -1.281232,-2.842999 -2.522421,-2.375848 -6.963947,-6.821084 -8.617541,-8.812855 -0.75488,-0.88064 -0.70704,-1.981802 -0.70704,-1.981802 0,0 -0.04786,-1.101136 0.70704,-1.981776 1.653594,-1.992022 6.09512,-6.437007 8.617541,-8.812855 1.032829,-0.99338 1.281232,-1.619498 1.281232,-2.838112 V 22.822458 c 0,-0.407073 -0.347022,-0.698098 -0.721279,-0.626345 z m 6.268593,0 C 52.75129,22.115135 52.41734,22.391233 52.41734,22.871337 V 36.34752 c 0,1.218865 0.248404,1.839847 1.281231,2.833228 2.522667,2.375846 6.968685,6.821058 8.622279,8.812831 0.754637,0.880638 0.707042,1.9818 0.707042,1.9818 0,0 0.04762,1.101162 -0.707042,1.981802 -1.653594,1.992022 -6.099612,6.436983 -8.622279,8.812829 -1.032827,0.993382 -1.276128,1.614262 -1.281231,2.838139 v 13.471272 c 0,0.639873 0.594454,0.920475 1.096168,0.469757 5.620906,-5.371522 18.154107,-18.178569 22.360005,-23.140464 2.00613,-2.201723 1.82221,-4.433335 1.82221,-4.433335 0,0 0.18392,-2.236623 -1.82221,-4.433335 C 71.672718,40.5804 59.139518,27.773027 53.513508,22.40158 53.388148,22.288842 53.255095,22.222944 53.129144,22.19614 Z M 14.160432,52.456276 c -3.942749,0 -10.499422,0.01011 -13.32488995,0.01011 -0.685272,0 -1.102435,0.856462 -0.640615,1.404389 C 5.85082,59.887431 36.451051,92.437201 42.186391,97.132521 c 2.001271,1.65405 4.578215,2.867477 7.810814,2.867477 3.2377,0 5.814424,-1.213427 7.810837,-2.867477 5.73534,-4.69532 36.330591,-37.24509 41.986721,-43.261746 0.461627,-0.547927 0.045,-1.404389 -0.65011,-1.404389 -2.8254,0 -9.37252,-0.01011 -13.32015,-0.01011 -1.39047,0 -1.80222,0.250612 -2.67639,1.218438 -0.87393,0.967828 -5.22461,5.778997 -5.22461,5.778997 -5.531986,6.149693 -19.023546,19.7308 -23.954442,24.01148 -1.852094,1.60795 -3.94671,1.55607 -3.976595,1.55607 -0.02988,0 -2.124501,0.0519 -3.976593,-1.55607 -4.930897,-4.285941 -18.422556,-17.86705 -23.954441,-24.01148 0,0 -4.350657,-4.811169 -5.224613,-5.778997 -0.873956,-0.967826 -1.286017,-1.218438 -2.676387,-1.218438 z" />
  </g>
</svg>
